<svg xmlns="http://www.w3.org/2000/svg" xmlns:xlink="http://www.w3.org/1999/xlink" width="500" zoomAndPan="magnify" viewBox="0 0 375 374.999991" height="500" preserveAspectRatio="xMidYMid meet" version="1.0"><defs><g/></defs><g fill="#f2970b" fill-opacity="1"><g transform="translate(38.97762, 26.441274)"><g><path d="M 81.359375 64.203125 L 0 64.203125 L 0 48.921875 L 9.078125 48.921875 L 2.546875 44.5 C -0.179688 40.957031 -1.546875 35.863281 -1.546875 29.21875 C -1.546875 21.101562 1.21875 14.703125 6.75 10.015625 C 12.28125 5.328125 19.476562 2.984375 28.34375 2.984375 C 38.519531 2.984375 46.410156 5.675781 52.015625 11.0625 C 57.628906 16.457031 60.4375 23.175781 60.4375 31.21875 C 60.4375 37.269531 59.328125 41.878906 57.109375 45.046875 L 51.03125 48.921875 L 81.359375 48.921875 Z M 9.1875 33.65625 C 9.1875 38.226562 10.753906 41.914062 13.890625 44.71875 C 17.023438 47.519531 21.988281 48.921875 28.78125 48.921875 L 31.65625 48.921875 C 37.78125 48.921875 42.316406 47.484375 45.265625 44.609375 C 48.222656 41.734375 49.703125 38.265625 49.703125 34.203125 C 49.703125 29.628906 47.945312 25.921875 44.4375 23.078125 C 40.9375 20.234375 35.898438 18.8125 29.328125 18.8125 C 23.273438 18.8125 18.40625 20.15625 14.71875 22.84375 C 11.03125 25.539062 9.1875 29.144531 9.1875 33.65625 Z M 9.1875 33.65625 "/></g></g></g><g fill="#f2970b" fill-opacity="1"><g transform="translate(38.97762, 97.832238)"><g><path d="M 51.859375 11.0625 C 57.578125 16.457031 60.4375 23.945312 60.4375 33.53125 C 60.4375 43.125 57.578125 50.613281 51.859375 56 C 46.140625 61.394531 38.664062 64.09375 29.4375 64.09375 C 20.289062 64.09375 12.835938 61.394531 7.078125 56 C 1.328125 50.613281 -1.546875 43.125 -1.546875 33.53125 C -1.546875 23.945312 1.328125 16.457031 7.078125 11.0625 C 12.835938 5.675781 20.289062 2.984375 29.4375 2.984375 C 38.664062 2.984375 46.140625 5.675781 51.859375 11.0625 Z M 14.546875 22.734375 C 10.972656 25.359375 9.1875 28.957031 9.1875 33.53125 C 9.1875 38.113281 10.972656 41.710938 14.546875 44.328125 C 18.128906 46.953125 23.09375 48.265625 29.4375 48.265625 C 35.789062 48.265625 40.753906 46.953125 44.328125 44.328125 C 47.910156 41.710938 49.703125 38.113281 49.703125 33.53125 C 49.703125 28.957031 47.910156 25.359375 44.328125 22.734375 C 40.753906 20.117188 35.789062 18.8125 29.4375 18.8125 C 23.09375 18.8125 18.128906 20.117188 14.546875 22.734375 Z M 14.546875 22.734375 "/></g></g></g><g fill="#f2970b" fill-opacity="1"><g transform="translate(38.97762, 164.906548)"><g><path d="M 41.171875 54.453125 C 38.660156 64.265625 32.535156 69.171875 22.796875 69.171875 C 16.234375 69.171875 11.066406 67.125 7.296875 63.03125 C 3.535156 58.9375 1.25 54.015625 0.4375 48.265625 C 0.144531 45.679688 0 42.140625 0 37.640625 L 0 9.84375 L 76.375 9.84375 L 76.375 37.1875 C 76.375 41.25 76.226562 44.535156 75.9375 47.046875 C 75.195312 53.171875 73.128906 57.910156 69.734375 61.265625 C 66.335938 64.617188 62.054688 66.296875 56.890625 66.296875 C 49.140625 66.296875 43.898438 62.347656 41.171875 54.453125 Z M 64.421875 25.125 L 45.046875 25.125 L 45.046875 36.640625 C 45.046875 38.484375 45.15625 40.289062 45.375 42.0625 C 46.257812 47.59375 49.4375 50.359375 54.90625 50.359375 C 60.289062 50.359375 63.351562 47.484375 64.09375 41.734375 C 64.3125 39.960938 64.421875 38.113281 64.421875 36.1875 Z M 12.171875 43.5 C 12.390625 46.300781 13.421875 48.601562 15.265625 50.40625 C 17.117188 52.21875 19.59375 53.125 22.6875 53.125 C 29.113281 53.125 32.65625 49.84375 33.3125 43.28125 C 33.539062 41.4375 33.65625 39.628906 33.65625 37.859375 L 33.65625 25.125 L 12.0625 25.125 L 12.0625 38.40625 C 12.0625 40.84375 12.097656 42.539062 12.171875 43.5 Z M 12.171875 43.5 "/></g></g></g><g fill="#f2970b" fill-opacity="1"><g transform="translate(38.97762, 237.625724)"><g><path d="M 60.328125 36.96875 C 60.328125 38.664062 60.175781 40.101562 59.875 41.28125 L 47.59375 41.28125 C 48.039062 34.789062 46.65625 29.992188 43.4375 26.890625 C 40.226562 23.796875 34.75 22.25 27 22.25 L 0 22.25 L 0 6.96875 L 58.890625 6.96875 L 58.890625 22.25 L 48.15625 22.25 L 56.34375 26.890625 C 59 29.773438 60.328125 33.132812 60.328125 36.96875 Z M 60.328125 36.96875 "/></g></g></g><g fill="#00763e" fill-opacity="1"><g transform="translate(38.97762, 279.695167)"><g><path d="M 14.4375 6.859375 C 16.175781 8.554688 17.046875 10.769531 17.046875 13.5 C 17.046875 16.226562 16.175781 18.457031 14.4375 20.1875 C 12.707031 21.925781 10.476562 22.796875 7.75 22.796875 C 5.019531 22.796875 2.785156 21.925781 1.046875 20.1875 C -0.679688 18.457031 -1.546875 16.226562 -1.546875 13.5 C -1.546875 10.769531 -0.679688 8.554688 1.046875 6.859375 C 2.785156 5.160156 5.019531 4.3125 7.75 4.3125 C 10.476562 4.3125 12.707031 5.160156 14.4375 6.859375 Z M 14.4375 6.859375 "/></g></g></g></svg>